<svg width="110" height="46" viewBox="0 0 110 46" fill="none" xmlns="http://www.w3.org/2000/svg">
<path d="M60.4699 11.9243C61.1993 8.50363 63.703 6.99061 64.8637 6.66168C60.2701 4.78157 58.0259 7.03639 57.476 8.60315C37.1978 -11.7333 15.0208 9.01184 16.6199 21.3998L14.066 23.5475L15.7187 25.526C22.1697 52.4698 50.6125 49.1582 58.0464 36.11V44.4807C58.947 46.2635 61.0457 45.5124 61.2748 44.4807V29.6855H94.6349L97.8635 24.0876C107.183 23.1289 107.713 20.2896 106.869 18.3011C102.075 12.5287 92.8545 21.3466 92.1918 26.7429H25.9064L23.3163 29.6855H57.9826C42.218 55.2136 20.9456 35.4386 22.9396 26.7429H19.1274V25.0018H34.7465C35.5825 24.1727 35.0948 23.1949 34.7465 22.8096H33.3187V14.3288H34.6226C35.1901 13.5927 35.0196 12.9026 34.6226 12.4955H27.8819C27.2498 13.1223 27.6185 13.8008 27.8819 14.0616H29.5624V22.8096H19.1274V21.3998H22.9396C22.2678 20.4769 22.1463 18.9193 22.1697 18.2558C28.3861 -0.89491 45.7283 1.07029 55.4131 11.9243H60.4699Z" fill="#D52300"/>
<path d="M31.5113 12.3808C32.6056 12.3808 33.4926 11.5009 33.4926 10.4155C33.4926 9.33015 32.6056 8.45026 31.5113 8.45026C30.417 8.45026 29.5299 9.33015 29.5299 10.4155C29.5299 11.5009 30.417 12.3808 31.5113 12.3808Z" fill="#D52300"/>
<path d="M67.7957 31.7587V33.3712H67.6698C67.5178 32.9305 67.29 32.5952 66.9862 32.366C66.6823 32.1365 66.3502 32.0218 65.9896 32.0218C65.645 32.0218 65.3581 32.1185 65.1292 32.312C64.9 32.5031 64.738 32.7707 64.6427 33.1149C64.5475 33.4589 64.4999 33.812 64.4999 34.1742C64.4999 34.6127 64.5521 34.9972 64.6564 35.328C64.7607 35.6585 64.9284 35.9014 65.1598 36.0567C65.3933 36.2118 65.6699 36.2894 65.9896 36.2894C66.1007 36.2894 66.2141 36.2782 66.3298 36.2556C66.4477 36.2309 66.5677 36.196 66.6902 36.1511V35.1998C66.6902 35.0198 66.6777 34.904 66.6528 34.8523C66.6279 34.7983 66.5758 34.75 66.4964 34.7072C66.4193 34.6645 66.3252 34.6431 66.2141 34.6431H66.095V34.5183H68.3365V34.6431C68.1663 34.6543 68.0474 34.678 67.9794 34.714C67.9136 34.7476 67.8624 34.8051 67.8263 34.886C67.8058 34.9287 67.7957 35.0332 67.7957 35.1998V36.1511C67.501 36.2816 67.1935 36.3794 66.8739 36.4445C66.5564 36.512 66.2266 36.5458 65.8842 36.5458C65.4465 36.5458 65.0826 36.4872 64.7924 36.3703C64.5045 36.2512 64.2493 36.096 64.0271 35.9049C63.8072 35.7114 63.6349 35.4943 63.5102 35.2538C63.3515 34.9432 63.2721 34.5958 63.2721 34.2112C63.2721 33.5231 63.5159 32.9416 64.0033 32.4671C64.4909 31.9925 65.1042 31.7552 65.8433 31.7552C66.0725 31.7552 66.2787 31.7732 66.4623 31.8092C66.5621 31.8272 66.7232 31.8791 66.9454 31.9645C67.1699 32.0476 67.3024 32.0892 67.3433 32.0892C67.4067 32.0892 67.4658 32.0669 67.5202 32.0218C67.5746 31.9745 67.6245 31.8869 67.6698 31.7587H67.7957ZM71.3091 35.1356H69.6799L69.486 35.5809C69.4225 35.7294 69.3908 35.852 69.3908 35.9487C69.3908 36.0769 69.4429 36.1712 69.5472 36.232C69.6084 36.268 69.7593 36.2951 69.9996 36.3131V36.4378H68.4657V36.3131C68.6312 36.2883 68.7672 36.2209 68.8737 36.1105C68.9804 35.9982 69.1118 35.7676 69.2684 35.4191L70.9179 31.7689H70.9825L72.6458 35.5202C72.8043 35.8756 72.9349 36.0994 73.0368 36.1916C73.1139 36.2612 73.2228 36.3018 73.3634 36.3131V36.4378H71.1322V36.3131H71.2241C71.4032 36.3131 71.5289 36.2883 71.6015 36.2387C71.6514 36.2029 71.6763 36.1511 71.6763 36.0836C71.6763 36.0431 71.6695 36.0014 71.6559 35.9587C71.6514 35.9385 71.6174 35.8542 71.554 35.7058L71.3091 35.1356ZM71.1935 34.886L70.5064 33.3105L69.7989 34.886H71.1935ZM75.2953 34.3529V35.6349C75.2953 35.8823 75.3099 36.0387 75.3395 36.1038C75.3712 36.1669 75.4256 36.2174 75.5028 36.2556C75.5798 36.294 75.7238 36.3131 75.9346 36.3131V36.4378H73.5742V36.3131C73.7874 36.3131 73.9313 36.294 74.0061 36.2556C74.0833 36.2152 74.1366 36.1634 74.1661 36.1005C74.1978 36.0374 74.2136 35.8823 74.2136 35.6349V32.6662C74.2136 32.4187 74.1978 32.2636 74.1661 32.2007C74.1366 32.1354 74.0833 32.0836 74.0061 32.0454C73.9291 32.0072 73.785 31.9882 73.5742 31.9882V31.8632H75.7169C76.2747 31.8632 76.6829 31.9014 76.9414 31.978C77.1998 32.0543 77.4108 32.1962 77.5739 32.4031C77.7373 32.6076 77.8188 32.8483 77.8188 33.1251C77.8188 33.4623 77.6964 33.7412 77.4515 33.9616C77.2951 34.1011 77.0763 34.2056 76.7951 34.2754L77.9039 35.8238C78.0491 36.024 78.1523 36.1489 78.2135 36.1983C78.3064 36.268 78.414 36.3063 78.5365 36.3131V36.4378H77.0842L75.5979 34.3529H75.2953ZM75.2953 32.1096V34.1134H75.489C75.8043 34.1134 76.04 34.0852 76.1966 34.0291C76.3529 33.9707 76.4754 33.8672 76.5639 33.7187C76.6545 33.568 76.6999 33.3723 76.6999 33.1318C76.6999 32.7831 76.6171 32.5256 76.4516 32.3592C76.2884 32.1927 76.0243 32.1096 75.6591 32.1096H75.2953ZM81.7982 34.8792L83.0498 31.8632H84.9274V31.9882H84.7777C84.6416 31.9882 84.5328 32.0116 84.4512 32.0589C84.3946 32.0903 84.3491 32.1432 84.3152 32.2174C84.2903 32.2714 84.2778 32.412 84.2778 32.6392V35.6552C84.2778 35.8891 84.2903 36.0352 84.3152 36.0938C84.3401 36.1522 84.3911 36.204 84.4682 36.2489C84.5452 36.2916 84.6484 36.3131 84.7777 36.3131H84.9274V36.4378H82.5193V36.3131H82.6689C82.8049 36.3131 82.9138 36.2894 82.9954 36.2422C83.0522 36.2107 83.0975 36.1567 83.1316 36.0802C83.1565 36.0263 83.169 35.8845 83.169 35.6552V32.2647L81.4003 36.4378H81.3187L79.5228 32.2951V35.5169C79.5228 35.7418 79.5285 35.88 79.5399 35.9318C79.5694 36.0442 79.6328 36.1365 79.7304 36.2083C79.8301 36.2782 79.9855 36.3131 80.1963 36.3131V36.4378H78.6182V36.3131H78.6657C78.7678 36.3152 78.8631 36.2994 78.9515 36.2658C79.0398 36.2298 79.1067 36.1825 79.1522 36.1242C79.1975 36.0656 79.2327 35.9836 79.2576 35.8778C79.2622 35.8531 79.2644 35.7383 79.2644 35.5338V32.6392C79.2644 32.4076 79.2519 32.2636 79.227 32.2074C79.2021 32.1489 79.1511 32.0983 79.0739 32.0556C78.9968 32.0105 78.8937 31.9882 78.7643 31.9882H78.6182V31.8632H80.5024L81.7982 34.8792ZM86.9544 32.1263V33.9887H87.0462C87.3388 33.9887 87.5507 33.8976 87.6823 33.7154C87.8137 33.5332 87.8977 33.2643 87.934 32.9091H88.0632V35.3043H87.934C87.9067 35.0434 87.8489 34.8298 87.7606 34.6632C87.6744 34.4969 87.5734 34.3856 87.4578 34.3294C87.3421 34.2709 87.1744 34.2416 86.9544 34.2416V35.5303C86.9544 35.7822 86.9647 35.9363 86.985 35.9925C87.0078 36.0487 87.0485 36.0949 87.1075 36.1309C87.1665 36.1669 87.2616 36.1849 87.3932 36.1849H87.6688C88.0995 36.1849 88.4441 36.0858 88.7026 35.888C88.9634 35.69 89.1504 35.3887 89.2639 34.9838H89.3896L89.1821 36.4378H85.196V36.3131H85.349C85.4828 36.3131 85.5906 36.2894 85.6722 36.2422C85.7312 36.2107 85.7765 36.1567 85.8082 36.0802C85.8331 36.0263 85.8456 35.8845 85.8456 35.6552V32.646C85.8456 32.4391 85.8399 32.312 85.8287 32.2647C85.806 32.186 85.764 32.1252 85.7028 32.0825C85.6166 32.0196 85.4988 31.9882 85.349 31.9882H85.196V31.8632H89.0564V33.216H88.9271C88.8613 32.8854 88.7684 32.6482 88.6482 32.5042C88.5303 32.3603 88.3626 32.2545 88.1448 32.1871C88.018 32.1467 87.7798 32.1263 87.4306 32.1263H86.9544ZM91.4371 31.8632L93.7125 34.7005V32.7336C93.7125 32.4592 93.6729 32.2738 93.5936 32.1771C93.4847 32.0465 93.3021 31.9836 93.046 31.9882V31.8632H94.5697V31.9882C94.3746 32.0129 94.2432 32.0454 94.1752 32.086C94.1094 32.1242 94.0573 32.1882 94.0186 32.2782C93.9823 32.366 93.9642 32.5178 93.9642 32.7336V36.5423H93.8485L90.7298 32.7336V35.6416C90.7298 35.9049 90.7899 36.0825 90.91 36.1747C91.0324 36.2669 91.1719 36.3131 91.3283 36.3131H91.4371V36.4378H89.8011V36.3131C90.0552 36.3107 90.2321 36.2591 90.3318 36.1578C90.4315 36.0567 90.4814 35.8845 90.4814 35.6416V32.4131L90.3828 32.2916C90.2853 32.1703 90.1991 32.0903 90.1243 32.0522C90.0495 32.014 89.9417 31.9925 89.8011 31.9882V31.8632H91.4371Z" fill="#D52300"/>
<path d="M99.375 33.0742V26.8271H102.167C102.729 26.8271 103.156 26.8838 103.448 26.9975C103.74 27.1084 103.973 27.3058 104.148 27.5898C104.323 27.874 104.41 28.1878 104.41 28.5316C104.41 28.9747 104.266 29.3484 103.976 29.6524C103.687 29.9564 103.24 30.1495 102.636 30.2318C102.856 30.3371 103.024 30.4407 103.138 30.5429C103.382 30.7645 103.612 31.0416 103.83 31.374L104.926 33.0742H103.877L103.044 31.7745C102.8 31.3995 102.6 31.1125 102.442 30.9136C102.285 30.7149 102.143 30.5756 102.017 30.4962C101.894 30.4165 101.768 30.3611 101.639 30.3298C101.545 30.31 101.39 30.3 101.175 30.3H100.208V33.0742H99.375ZM100.208 29.5842H102C102.381 29.5842 102.679 29.5458 102.894 29.4691C103.108 29.3896 103.272 29.2645 103.383 29.0942C103.495 28.9207 103.551 28.7333 103.551 28.5316C103.551 28.2362 103.442 27.9933 103.224 27.8029C103.01 27.6125 102.669 27.5175 102.202 27.5175H100.208V29.5842Z" fill="#D52300"/>
<path d="M2.13861 24.1718V25.5738C2.13861 25.8473 2.1549 26.02 2.18747 26.0922C2.22256 26.1618 2.2827 26.2176 2.36792 26.26C2.45563 26.3022 2.61476 26.3233 2.84534 26.3233V26.4613H0.255249V26.3233C0.490824 26.3233 0.649964 26.3022 0.732666 26.26C0.817874 26.2153 0.876768 26.158 0.909349 26.0884C0.944433 26.0189 0.961977 25.8473 0.961977 25.5738V22.2925C0.961977 22.0191 0.944433 21.8476 0.909349 21.778C0.876768 21.706 0.817874 21.6487 0.732666 21.6065C0.647458 21.5644 0.488318 21.5431 0.255249 21.5431V21.4053H2.47693C3.20872 21.4053 3.73375 21.5344 4.05204 21.7929C4.37031 22.0515 4.52946 22.3747 4.52946 22.7624C4.52946 23.0905 4.4267 23.3715 4.22119 23.6051C4.01569 23.8387 3.7325 23.9978 3.37163 24.0824C3.12853 24.142 2.71752 24.1718 2.13861 24.1718ZM2.13861 21.696V23.8811C2.22131 23.886 2.28397 23.8885 2.32657 23.8885C2.63232 23.8885 2.86789 23.7991 3.0333 23.62C3.1987 23.4385 3.2814 23.1589 3.2814 22.7811C3.2814 22.4056 3.1987 22.1311 3.0333 21.9571C2.86789 21.7831 2.62103 21.696 2.29273 21.696H2.13861ZM5.02191 25.3129C5.19733 25.3129 5.3452 25.3738 5.46549 25.4956C5.58828 25.6175 5.64969 25.764 5.64969 25.9356C5.64969 26.1071 5.58828 26.2538 5.46549 26.3755C5.34269 26.4949 5.19482 26.5545 5.02191 26.5545C4.84898 26.5545 4.70112 26.4949 4.57833 26.3755C4.45802 26.2538 4.39788 26.1071 4.39788 25.9356C4.39788 25.764 4.45802 25.6175 4.57833 25.4956C4.70112 25.3738 4.84898 25.3129 5.02191 25.3129ZM10.8411 21.4053V22.7736H10.7058C10.6256 22.458 10.5366 22.2316 10.4389 22.0949C10.3412 21.9558 10.2071 21.8451 10.0367 21.7631C9.94144 21.7184 9.77478 21.696 9.5367 21.696H9.15702V25.5962C9.15702 25.8547 9.1708 26.0164 9.19837 26.0809C9.22843 26.1456 9.28482 26.2027 9.36753 26.2525C9.45275 26.2996 9.56803 26.3233 9.71337 26.3233H9.88254V26.4613H7.21351V26.3233H7.38268C7.53053 26.3233 7.64957 26.2973 7.73979 26.2451C7.80496 26.2102 7.85634 26.1505 7.89394 26.066C7.92149 26.0064 7.93527 25.8498 7.93527 25.5962V21.696H7.56688C7.22353 21.696 6.97418 21.7682 6.81879 21.9124C6.60077 22.1136 6.46293 22.4007 6.40529 22.7736H6.26244V21.4053H10.8411ZM11.5103 25.3129C11.6857 25.3129 11.8336 25.3738 11.9539 25.4956C12.0767 25.6175 12.1381 25.764 12.1381 25.9356C12.1381 26.1071 12.0767 26.2538 11.9539 26.3755C11.8311 26.4949 11.6832 26.5545 11.5103 26.5545C11.3373 26.5545 11.1895 26.4949 11.0667 26.3755C10.9464 26.2538 10.8862 26.1071 10.8862 25.9356C10.8862 25.764 10.9464 25.6175 11.0667 25.4956C11.1895 25.3738 11.3373 25.3129 11.5103 25.3129Z" fill="#D52300"/>
<path d="M45.6062 12.5995L45.7096 16.813H45.3243C45.1427 15.7565 44.6947 14.9082 43.9803 14.2681C43.2724 13.6218 42.5049 13.2987 41.6778 13.2987C41.0388 13.2987 40.5313 13.4696 40.1553 13.8114C39.7857 14.1469 39.601 14.5353 39.601 14.9766C39.601 15.2562 39.6666 15.5048 39.7982 15.7223C39.9799 16.0144 40.2713 16.3034 40.6722 16.5892C40.9668 16.7943 41.6465 17.1579 42.7117 17.6799C44.2029 18.4069 45.2083 19.0937 45.7283 19.74C46.2421 20.3864 46.4989 21.1258 46.4989 21.9586C46.4989 23.0151 46.0823 23.9255 45.2492 24.6898C44.4221 25.448 43.3696 25.8271 42.0914 25.8271C41.6905 25.8271 41.3114 25.7867 40.9541 25.7058C40.5971 25.6251 40.1491 25.4729 39.6103 25.2491C39.3095 25.1249 39.0621 25.0627 38.8679 25.0627C38.705 25.0627 38.5327 25.1249 38.351 25.2491C38.1694 25.3735 38.022 25.5629 37.9093 25.8178H37.5615V21.0451H37.9093C38.1849 22.3873 38.7143 23.4127 39.4976 24.1213C40.2869 24.8235 41.136 25.1746 42.0444 25.1746C42.7461 25.1746 43.3037 24.9849 43.7173 24.606C44.1371 24.2269 44.3469 23.7857 44.3469 23.2822C44.3469 22.984 44.2654 22.6949 44.1026 22.4153C43.9459 22.1357 43.7046 21.8715 43.3789 21.6229C43.0532 21.3682 42.4767 21.0387 41.6496 20.6349C40.4906 20.0693 39.6573 19.5877 39.1499 19.19C38.6423 18.7922 38.2508 18.348 37.9751 17.857C37.7056 17.3661 37.5709 16.8254 37.5709 16.235C37.5709 15.2283 37.9437 14.3707 38.6892 13.6622C39.4349 12.9538 40.3747 12.5995 41.5086 12.5995C41.9222 12.5995 42.3232 12.6493 42.7117 12.7487C43.0061 12.8233 43.3631 12.9631 43.7831 13.1682C44.2091 13.367 44.5066 13.4665 44.6758 13.4665C44.8387 13.4665 44.9671 13.4167 45.0611 13.3173C45.1551 13.2179 45.2428 12.9786 45.3243 12.5995H45.6062ZM59.4212 12.8885V16.3096H59.0829C58.8825 15.5203 58.66 14.9548 58.4156 14.613C58.1713 14.265 57.8362 13.9885 57.41 13.7834C57.1721 13.6715 56.7554 13.6156 56.1602 13.6156H55.2109V23.3662C55.2109 24.0124 55.2454 24.4164 55.3143 24.578C55.3894 24.7395 55.5304 24.8826 55.7372 25.0067C55.9502 25.1249 56.2385 25.1838 56.6018 25.1838H57.0247V25.5287H50.3522V25.1838H50.7751C51.1448 25.1838 51.4423 25.1186 51.668 24.9882C51.8307 24.9011 51.9592 24.752 52.0533 24.5407C52.1222 24.3915 52.1567 24 52.1567 23.3662V13.6156H51.2356C50.3773 13.6156 49.7539 13.7958 49.3655 14.1563C48.8203 14.6596 48.4757 15.3774 48.3316 16.3096H47.9746V12.8885H59.4212ZM65.3607 13.6156V18.7613H65.6146C66.4228 18.7613 67.0086 18.5095 67.3719 18.0061C67.7352 17.5028 67.9671 16.7601 68.0674 15.7783H68.4245V22.3967H68.0674C67.9922 21.6758 67.8324 21.0855 67.588 20.6255C67.3499 20.1657 67.0711 19.858 66.7516 19.7027C66.4321 19.5411 65.9685 19.4604 65.3607 19.4604V23.0213C65.3607 23.7173 65.3889 24.1429 65.4454 24.2984C65.5081 24.4537 65.6208 24.5811 65.7838 24.6806C65.9465 24.78 66.2098 24.8297 66.5731 24.8297H67.3344C68.5247 24.8297 69.477 24.5562 70.1913 24.0093C70.9119 23.4624 71.4287 22.6297 71.7419 21.5111H72.0897L71.5165 25.5287H60.502V25.1838H60.9249C61.2946 25.1838 61.5921 25.1186 61.8178 24.9882C61.9806 24.9011 62.1059 24.752 62.1937 24.5407C62.2627 24.3915 62.2971 24 62.2971 23.3662V15.0511C62.2971 14.4794 62.2813 14.1283 62.25 13.9978C62.1873 13.7803 62.0715 13.6125 61.9023 13.4944C61.6642 13.3204 61.3384 13.2334 60.9249 13.2334H60.502V12.8885H71.1687V16.6265H70.8116C70.6298 15.713 70.373 15.0574 70.041 14.6596C69.7151 14.2619 69.2515 13.9698 68.6501 13.7834C68.2993 13.6715 67.6414 13.6156 66.6765 13.6156H65.3607ZM81.0835 18.118L84.5984 23.2917C85.1811 24.1491 85.5947 24.6711 85.839 24.8577C86.0896 25.0378 86.384 25.1466 86.7224 25.1838V25.5287H80.5103V25.1838C81.0053 25.1466 81.3248 25.072 81.4688 24.9602C81.6129 24.8484 81.6851 24.7117 81.6851 24.55C81.6851 24.4382 81.6631 24.3387 81.6193 24.2517C81.5315 24.0653 81.3123 23.7173 80.9614 23.2077L79.1005 20.4764L77.1553 22.8347C76.5726 23.5495 76.2813 24.0342 76.2813 24.2889C76.2813 24.4693 76.3565 24.6369 76.5068 24.7924C76.6571 24.9477 76.8796 25.0597 77.174 25.128C77.3056 25.1653 77.5751 25.1838 77.9822 25.1838V25.5287H73.0859V25.1838C73.6435 25.1031 74.0822 24.954 74.4017 24.7364C74.8215 24.4506 75.4073 23.854 76.159 22.9467L78.6872 19.8891L75.4449 15.163C74.9122 14.3862 74.6085 13.9543 74.5331 13.8673C74.3641 13.6622 74.198 13.5162 74.0351 13.4292C73.8721 13.3422 73.6467 13.2769 73.3585 13.2334V12.8885H79.6833V13.2334H79.3638C79.0005 13.2334 78.7466 13.2925 78.6025 13.4105C78.4584 13.5224 78.3864 13.6653 78.3864 13.8393C78.3864 13.9761 78.4084 14.0941 78.4522 14.1936L79.1005 15.163L80.6795 17.5494L82.0233 15.9181C82.7126 15.0791 83.0572 14.4919 83.0572 14.1563C83.0572 13.9885 83.007 13.8331 82.9069 13.6902C82.8128 13.5473 82.675 13.4354 82.4933 13.3546C82.3117 13.2738 82.0296 13.2334 81.6474 13.2334V12.8885H86.3371V13.2334C85.9673 13.2396 85.6698 13.2862 85.4442 13.3732C85.2187 13.454 84.9775 13.6094 84.7207 13.8393C84.5577 13.9885 84.1504 14.4515 83.4989 15.2283L81.0835 18.118Z" fill="#D52300"/>
<path d="M72.2326 43.6957V43.8206H69.821V43.6957H69.9741C70.1079 43.6957 70.2157 43.672 70.2973 43.6249C70.3563 43.5933 70.4016 43.5393 70.4333 43.4629C70.4582 43.4089 70.4707 43.2673 70.4707 43.0378V40.0286C70.4707 39.7948 70.4582 39.6486 70.4333 39.59C70.4084 39.5317 70.3574 39.4809 70.2802 39.4382C70.2054 39.3933 70.1033 39.3708 69.9741 39.3708H69.821V39.246H72.2326V39.3708H72.0796C71.9457 39.3708 71.838 39.3944 71.7564 39.4417C71.6974 39.4731 71.651 39.5271 71.6169 39.6035C71.592 39.6575 71.5795 39.7993 71.5795 40.0286V43.0378C71.5795 43.2717 71.592 43.418 71.6169 43.4764C71.6442 43.5349 71.6952 43.5866 71.77 43.6317C71.8471 43.6744 71.9503 43.6957 72.0796 43.6957H72.2326ZM74.1304 39.246L76.4057 42.0831V40.1164C76.4057 39.842 76.3661 39.6564 76.2868 39.5597C76.1779 39.4293 75.9953 39.3662 75.7392 39.3708V39.246H77.2629V39.3708C77.0678 39.3955 76.9364 39.428 76.8684 39.4686C76.8026 39.5068 76.7504 39.5709 76.7119 39.6609C76.6756 39.7486 76.6574 39.9004 76.6574 40.1164V43.9251H76.5418L73.423 40.1164V43.0244C73.423 43.2875 73.4831 43.4651 73.6032 43.5573C73.7256 43.6497 73.8651 43.6957 74.0215 43.6957H74.1304V43.8206H72.4944V43.6957C72.7484 43.6935 72.9253 43.6417 73.025 43.5406C73.1248 43.4393 73.1746 43.2673 73.1746 43.0244V39.7958L73.076 39.6744C72.9785 39.5529 72.8923 39.4731 72.8175 39.4349C72.7428 39.3966 72.635 39.3753 72.4944 39.3708V39.246H74.1304ZM77.5213 43.8206V43.6957H77.6744C77.8082 43.6957 77.9103 43.6755 77.9805 43.6349C78.0531 43.5922 78.1064 43.5349 78.1404 43.4629C78.1607 43.4157 78.171 43.274 78.171 43.0378V40.0286C78.171 39.7948 78.1585 39.6486 78.1336 39.59C78.1086 39.5317 78.0577 39.4809 77.9805 39.4382C77.9057 39.3933 77.8036 39.3708 77.6744 39.3708H77.5213V39.246H79.5859C80.1369 39.246 80.5802 39.3202 80.9158 39.4686C81.3262 39.6508 81.6367 39.9262 81.8477 40.2951C82.0609 40.664 82.1674 41.0811 82.1674 41.5468C82.1674 41.8684 82.1152 42.1653 82.0109 42.4373C81.9066 42.7073 81.7716 42.9309 81.6061 43.1088C81.4406 43.284 81.249 43.4258 81.0315 43.5338C80.8161 43.6395 80.5517 43.7215 80.2388 43.78C80.1006 43.8069 79.8829 43.8206 79.5859 43.8206H77.5213ZM79.2798 39.5057V43.0749C79.2798 43.2638 79.2888 43.3797 79.3069 43.4224C79.3251 43.4651 79.3557 43.4978 79.3988 43.5202C79.46 43.554 79.5485 43.5709 79.6642 43.5709C80.0427 43.5709 80.332 43.4428 80.5314 43.1862C80.8034 42.8398 80.9396 42.3024 80.9396 41.5737C80.9396 40.9868 80.8467 40.5178 80.6606 40.1669C80.5132 39.8926 80.3239 39.7058 80.0927 39.6069C79.9294 39.5371 79.6585 39.5035 79.2798 39.5057ZM85.1536 39.1818C85.8883 39.1549 86.4846 39.3675 86.9427 39.8195C87.403 40.2715 87.633 40.8371 87.633 41.5164C87.633 42.0966 87.4618 42.6071 87.1196 43.048C86.6661 43.6328 86.0254 43.9251 85.1978 43.9251C84.368 43.9251 83.7262 43.6462 83.2727 43.0884C82.9145 42.6477 82.7355 42.1248 82.7355 41.5197C82.7355 40.8406 82.9677 40.2749 83.4326 39.8228C83.8996 39.3686 84.4734 39.1549 85.1536 39.1818ZM85.1945 39.3978C84.7727 39.3978 84.4517 39.6115 84.232 40.0388C84.0527 40.3897 83.9632 40.8933 83.9632 41.55C83.9632 42.3306 84.1014 42.9075 84.3781 43.2808C84.5709 43.5417 84.8407 43.672 85.1875 43.672C85.4213 43.672 85.6161 43.6158 85.7726 43.5035C85.9721 43.3595 86.1275 43.13 86.2386 42.8151C86.3497 42.498 86.4052 42.0853 86.4052 41.5771C86.4052 40.972 86.3486 40.52 86.2351 40.2209C86.1218 39.9195 85.9767 39.7069 85.7998 39.5833C85.6253 39.4597 85.4235 39.3978 85.1945 39.3978ZM89.6193 39.246L91.8947 42.0831V40.1164C91.8947 39.842 91.8551 39.6564 91.7757 39.5597C91.6668 39.4293 91.4843 39.3662 91.2282 39.3708V39.246H92.7518V39.3708C92.5568 39.3955 92.4253 39.428 92.3573 39.4686C92.2915 39.5068 92.2395 39.5709 92.2008 39.6609C92.1645 39.7486 92.1464 39.9004 92.1464 40.1164V43.9251H92.0307L88.9119 40.1164V43.0244C88.9119 43.2875 88.9721 43.4651 89.0921 43.5573C89.2146 43.6497 89.3541 43.6957 89.5104 43.6957H89.6193V43.8206H87.9833V43.6957C88.2374 43.6935 88.4143 43.6417 88.514 43.5406C88.6137 43.4393 88.6636 43.2673 88.6636 43.0244V39.7958L88.5649 39.6744C88.4674 39.5529 88.3813 39.4731 88.3065 39.4349C88.2317 39.3966 88.1239 39.3753 87.9833 39.3708V39.246H89.6193ZM94.8164 39.5091V41.3713H94.9082C95.2006 41.3713 95.4127 41.2802 95.5441 41.098C95.6757 40.9158 95.7597 40.6471 95.796 40.2917H95.9252V42.6869H95.796C95.7687 42.426 95.7109 42.2124 95.6224 42.046C95.5362 41.8797 95.4354 41.7682 95.3197 41.712C95.2041 41.6535 95.0363 41.6244 94.8164 41.6244V42.9129C94.8164 43.1649 94.8265 43.3189 94.847 43.3751C94.8695 43.4315 94.9104 43.4775 94.9694 43.5135C95.0283 43.5495 95.1236 43.5675 95.255 43.5675H95.5305C95.9615 43.5675 96.3061 43.4686 96.5646 43.2706C96.8252 43.0728 97.0124 42.7713 97.1257 42.3666H97.2516L97.0441 43.8206H93.0579V43.6957H93.211C93.3448 43.6957 93.4524 43.672 93.5342 43.6249C93.593 43.5933 93.6385 43.5393 93.6702 43.4629C93.6951 43.4089 93.7076 43.2673 93.7076 43.0378V40.0286C93.7076 39.8217 93.7019 39.6946 93.6905 39.6475C93.6678 39.5688 93.626 39.508 93.5648 39.4653C93.4786 39.4022 93.3606 39.3708 93.211 39.3708H93.0579V39.246H96.9183V40.5988H96.7891C96.7233 40.2682 96.6304 40.0309 96.5101 39.8869C96.3923 39.7429 96.2243 39.6373 96.0068 39.5698C95.8797 39.5293 95.6416 39.5091 95.2924 39.5091H94.8164ZM100.837 39.1413L100.874 40.6662H100.734C100.669 40.2838 100.507 39.9769 100.248 39.7453C99.9918 39.5113 99.7141 39.3944 99.4148 39.3944C99.1834 39.3944 98.9998 39.4562 98.8638 39.5798C98.7299 39.7013 98.663 39.842 98.663 40.0017C98.663 40.1028 98.6869 40.1928 98.7345 40.2715C98.8003 40.3773 98.9057 40.4818 99.0507 40.5853C99.1574 40.6595 99.4034 40.7911 99.7889 40.98C100.329 41.2431 100.692 41.4917 100.881 41.7255C101.067 41.9595 101.159 42.2271 101.159 42.5284C101.159 42.9108 101.009 43.2402 100.707 43.5169C100.408 43.7913 100.027 43.9284 99.5644 43.9284C99.4192 43.9284 99.2821 43.9138 99.1528 43.8846C99.0236 43.8553 98.8614 43.8002 98.6665 43.7193C98.5576 43.6744 98.468 43.6518 98.3978 43.6518C98.3388 43.6518 98.2765 43.6744 98.2106 43.7193C98.145 43.7642 98.0917 43.8329 98.0508 43.9251H97.9251V42.1978H98.0508C98.1507 42.6837 98.3423 43.0548 98.6256 43.3111C98.9114 43.5653 99.2186 43.6924 99.5473 43.6924C99.8014 43.6924 100.003 43.6237 100.153 43.4866C100.305 43.3493 100.381 43.1897 100.381 43.0075C100.381 42.8995 100.351 42.7949 100.292 42.6937C100.236 42.5926 100.148 42.4969 100.03 42.4069C99.9125 42.3148 99.7039 42.1957 99.4045 42.0493C98.9851 41.8448 98.6834 41.6704 98.4999 41.5266C98.3162 41.3826 98.1744 41.2217 98.0746 41.044C97.9771 40.8664 97.9284 40.6708 97.9284 40.4571C97.9284 40.0928 98.0633 39.7824 98.3331 39.526C98.6029 39.2695 98.9431 39.1413 99.3536 39.1413C99.5031 39.1413 99.6483 39.1593 99.7889 39.1953C99.8954 39.2224 100.025 39.2729 100.177 39.3471C100.331 39.4191 100.439 39.4551 100.5 39.4551C100.559 39.4551 100.605 39.4371 100.639 39.4011C100.673 39.3651 100.705 39.2786 100.734 39.1413H100.837ZM103.993 43.6957V43.8206H101.581V43.6957H101.734C101.868 43.6957 101.976 43.672 102.057 43.6249C102.116 43.5933 102.162 43.5393 102.194 43.4629C102.218 43.4089 102.231 43.2673 102.231 43.0378V40.0286C102.231 39.7948 102.218 39.6486 102.194 39.59C102.169 39.5317 102.118 39.4809 102.04 39.4382C101.966 39.3933 101.864 39.3708 101.734 39.3708H101.581V39.246H103.993V39.3708H103.84C103.706 39.3708 103.598 39.3944 103.517 39.4417C103.458 39.4731 103.411 39.5271 103.377 39.6035C103.352 39.6575 103.34 39.7993 103.34 40.0286V43.0378C103.34 43.2717 103.352 43.418 103.377 43.4764C103.404 43.5349 103.455 43.5866 103.53 43.6317C103.607 43.6744 103.71 43.6957 103.84 43.6957H103.993ZM107.054 42.5184H105.425L105.231 42.9637C105.167 43.112 105.136 43.2346 105.136 43.3313C105.136 43.4595 105.188 43.554 105.292 43.6148C105.353 43.6508 105.504 43.6777 105.744 43.6957V43.8206H104.21V43.6957C104.376 43.6709 104.512 43.6035 104.618 43.4933C104.725 43.3808 104.857 43.1502 105.013 42.8017L106.663 39.1515H106.727L108.391 42.9029C108.549 43.2582 108.68 43.482 108.781 43.5742C108.859 43.644 108.968 43.6844 109.108 43.6957V43.8206H106.877V43.6957H106.969C107.148 43.6957 107.274 43.6709 107.346 43.6215C107.396 43.5855 107.421 43.5338 107.421 43.4662C107.421 43.4258 107.414 43.3842 107.401 43.3415C107.396 43.3213 107.362 43.2369 107.299 43.0884L107.054 42.5184ZM106.938 42.2688L106.251 40.6931L105.544 42.2688H106.938Z" fill="#D52300"/>
<path fill-rule="evenodd" clip-rule="evenodd" d="M101.862 35.8295C105.067 35.8295 107.664 33.2527 107.664 30.0742C107.664 26.8956 105.067 24.3189 101.862 24.3189C98.6575 24.3189 96.0597 26.8956 96.0597 30.0742C96.0597 33.2527 98.6575 35.8295 101.862 35.8295ZM101.862 34.5278C104.342 34.5278 106.352 32.5338 106.352 30.0742C106.352 27.6145 104.342 25.6205 101.862 25.6205C99.3825 25.6205 97.3722 27.6145 97.3722 30.0742C97.3722 32.5338 99.3825 34.5278 101.862 34.5278Z" fill="#D52300"/>
<mask id="mask0_181_26" style="mask-type:luminance" maskUnits="userSpaceOnUse" x="96" y="24" width="12" height="12">
<path fill-rule="evenodd" clip-rule="evenodd" d="M101.862 35.8295C105.067 35.8295 107.664 33.2527 107.664 30.0742C107.664 26.8956 105.067 24.3189 101.862 24.3189C98.6575 24.3189 96.0597 26.8956 96.0597 30.0742C96.0597 33.2527 98.6575 35.8295 101.862 35.8295ZM101.862 34.5278C104.342 34.5278 106.352 32.5338 106.352 30.0742C106.352 27.6145 104.342 25.6205 101.862 25.6205C99.3825 25.6205 97.3722 27.6145 97.3722 30.0742C97.3722 32.5338 99.3825 34.5278 101.862 34.5278Z" fill="#FFAE00"/>
</mask>
<g mask="url(#mask0_181_26)">
<path d="M107.481 30.0742C107.481 33.1524 104.965 35.6476 101.862 35.6476V36.0113C105.168 36.0113 107.848 33.3531 107.848 30.0742H107.481ZM101.862 24.5007C104.965 24.5007 107.481 26.996 107.481 30.0742H107.848C107.848 26.7953 105.168 24.1371 101.862 24.1371V24.5007ZM96.243 30.0742C96.243 26.996 98.7586 24.5007 101.862 24.5007V24.1371C98.5563 24.1371 95.8763 26.7953 95.8763 30.0742H96.243ZM101.862 35.6476C98.7586 35.6476 96.243 33.1524 96.243 30.0742H95.8763C95.8763 33.3531 98.5563 36.0113 101.862 36.0113V35.6476ZM106.169 30.0742C106.169 32.4334 104.241 34.346 101.862 34.346V34.7096C104.443 34.7096 106.536 32.6344 106.536 30.0742H106.169ZM101.862 25.8024C104.241 25.8024 106.169 27.7149 106.169 30.0742H106.536C106.536 27.5142 104.443 25.4387 101.862 25.4387V25.8024ZM97.5554 30.0742C97.5554 27.7149 99.4836 25.8024 101.862 25.8024V25.4387C99.2812 25.4387 97.1888 27.5142 97.1888 30.0742H97.5554ZM101.862 34.346C99.4836 34.346 97.5554 32.4334 97.5554 30.0742H97.1888C97.1888 32.6344 99.2812 34.7096 101.862 34.7096V34.346Z" fill="#D52300"/>
</g>
</svg>
