<svg width="108" height="107" viewBox="0 0 108 107" fill="none" xmlns="http://www.w3.org/2000/svg">
<path d="M16.7837 46.8769C16.5446 47.6571 15.8274 49.2173 15.2127 50.3876C14.598 51.5578 13.3344 53.3781 12.4123 54.4508C11.5244 55.491 9.85101 57.0838 8.72402 57.9615C7.59703 58.8067 5.44552 60.0744 3.94287 60.757C2.44022 61.4397 0.835119 62.1223 0.391155 62.2848C-0.326017 62.5449 -0.189413 62.6749 1.92795 63.455C3.2257 63.9426 5.24061 64.9178 6.4359 65.6655C7.59703 66.3806 9.20213 67.5183 9.95346 68.1684C10.7389 68.8511 12.0367 70.2163 12.8221 71.1915C13.6076 72.1667 14.7346 73.857 15.281 74.9297C15.8616 76.0024 16.5446 77.4977 16.7837 78.2778C17.0569 79.0255 17.3642 79.5456 17.4667 79.4156C17.6033 79.253 17.9448 78.4079 18.2522 77.5302C18.5595 76.62 19.3792 74.9622 20.0622 73.792C20.8135 72.5242 22.4528 70.5739 24.2286 68.8836C26.6875 66.5431 27.6779 65.8605 30.41 64.6253C32.1858 63.8126 34.03 62.9999 34.5081 62.8374C35.3277 62.5124 35.3277 62.5124 33.9958 62.0898C33.2445 61.8622 31.4003 61.0821 29.8977 60.367C27.8828 59.3593 26.4143 58.3191 24.2286 56.2387C22.4528 54.5484 20.8135 52.663 20.0622 51.3628C19.3792 50.1925 18.5595 48.5022 18.2522 47.6245C17.9448 46.7144 17.6033 45.9017 17.4667 45.7392C17.3642 45.6092 17.0569 46.1293 16.7837 46.8769ZM49.8419 91.8329C49.3979 92.7106 48.1685 94.2709 47.144 95.2786C46.1194 96.2537 44.5485 97.3914 43.6606 97.7815C42.7385 98.1716 42.0213 98.5292 42.0213 98.5617C41.9872 98.6267 43.0117 99.2443 44.2753 99.9594C45.5389 100.675 47.0757 101.845 47.7246 102.56C48.3734 103.275 49.2955 104.543 49.7395 105.388C50.1834 106.266 50.6615 106.948 50.8323 106.948C50.9689 106.948 51.2763 106.428 51.5153 105.811C51.7202 105.193 52.8131 103.763 53.9059 102.69C54.9646 101.585 56.7063 100.219 57.7308 99.6994C59.4042 98.7892 59.5408 98.6592 58.9603 98.3666C58.5846 98.1716 57.3552 97.424 56.2282 96.6763C54.828 95.7986 53.701 94.6934 52.7789 93.3932C52.0276 92.3205 51.2421 91.1828 51.0372 90.8252C50.7298 90.2726 50.5932 90.3701 49.8419 91.8329Z" fill="#D52300"/>
<path d="M72.3074 2.86103C71.8635 4.42132 70.8048 7.15184 69.9169 8.93968C68.9948 10.7275 67.458 13.3605 66.4335 14.7908C65.4089 16.2211 63.3599 18.6265 61.8231 20.1218C60.3204 21.6171 57.9298 23.665 56.5296 24.6726C55.1294 25.6803 52.4315 27.2731 50.5532 28.1833C48.6749 29.0935 45.7037 30.2962 43.9962 30.8488C42.2545 31.4014 40.5128 31.8565 40.1371 31.8565C39.7615 31.8565 39.4541 31.9865 39.4541 32.1816C39.4541 32.3766 40.4445 32.7342 41.6739 32.9942C42.9034 33.2543 45.2256 34.0019 46.899 34.6195C48.5383 35.2697 50.963 36.3749 52.2608 37.1225C53.5926 37.8701 55.8808 39.3654 57.3834 40.4706C58.8861 41.5758 61.1059 43.4937 62.3012 44.7289C63.4965 45.9642 65.1357 47.8495 65.9212 48.9222C66.7408 49.9949 68.1069 52.1078 68.9606 53.6356C69.8144 55.1634 71.0438 57.9264 71.6927 59.8118C72.3757 61.6971 72.9222 63.485 72.9222 63.81C72.9222 64.1026 73.0246 64.3627 73.1954 64.3627C73.332 64.3627 73.8784 62.9324 74.4248 61.2096C75.0054 59.4542 76.3373 56.3336 77.4301 54.2857C78.4888 52.2379 80.1963 49.5073 81.1867 48.2721C82.1771 47.0369 83.9871 45.054 85.2165 43.8513C86.446 42.6811 88.7341 40.8282 90.3392 39.6905C91.9443 38.5528 94.8472 36.895 96.8279 35.9523C98.8087 35.0421 101.916 33.8394 103.761 33.3193C105.571 32.7667 107.073 32.2791 107.073 32.1816C107.073 32.0841 105.946 31.7265 104.614 31.4014C103.248 31.0764 100.96 30.3287 99.56 29.7761C98.1598 29.191 95.94 28.1833 94.6081 27.4682C93.2762 26.753 91.0564 25.3553 89.6562 24.3476C88.256 23.3399 86.0362 21.422 84.7043 20.1218C83.3724 18.789 81.5965 16.7737 80.7428 15.6034C79.889 14.4332 78.6254 12.5479 77.9424 11.3776C77.2593 10.2074 76.2007 7.96449 75.5518 6.33919C74.9029 4.71388 74.2199 2.63349 74.0491 1.72331C73.8442 0.780637 73.571 0.000488281 73.4003 0.000488281C73.1954 0.000488281 72.7173 1.26823 72.3074 2.86103Z" fill="#D52300"/>
</svg>
