<svg width="18" height="18" viewBox="0 0 18 18" fill="none" xmlns="http://www.w3.org/2000/svg">
<path fill-rule="evenodd" clip-rule="evenodd" d="M2.63604 2.63604C4.26396 1.00812 6.51491 0 9 0C10.8491 0 12.57 0.558424 14.0005 1.51596C14.3182 1.72865 14.4034 2.15864 14.1907 2.47638C13.978 2.79412 13.548 2.87928 13.2303 2.66659C12.2008 1.9775 10.9944 1.53284 9.69231 1.41562V2.53846C9.69231 2.92081 9.38235 3.23077 9 3.23077C8.61765 3.23077 8.30769 2.92081 8.30769 2.53846V1.41563C6.72446 1.55819 5.28145 2.18502 4.12679 3.14771L4.91965 3.94058C5.19001 4.21094 5.19001 4.64929 4.91965 4.91965C4.64929 5.19001 4.21094 5.19001 3.94058 4.91965L3.14771 4.12679C2.18502 5.28145 1.55819 6.72446 1.41563 8.30769H2.53846C2.92081 8.30769 3.23077 8.61765 3.23077 9C3.23077 9.38235 2.92081 9.69231 2.53846 9.69231H1.41563C1.55819 11.2754 2.18493 12.7183 3.1475 13.8729L3.94122 13.0792C4.21158 12.8089 4.64993 12.8089 4.92029 13.0792C5.19065 13.3496 5.19065 13.7879 4.92028 14.0583L4.12652 14.8521C5.28122 15.8149 6.72435 16.4418 8.30769 16.5844V15.4615C8.30769 15.0792 8.61765 14.7692 9 14.7692C9.38235 14.7692 9.69231 15.0792 9.69231 15.4615V16.5844C11.2755 16.4418 12.7186 15.815 13.8732 14.8523L13.0786 14.0577C12.8082 13.7873 12.8082 13.3489 13.0786 13.0786C13.3489 12.8082 13.7873 12.8082 14.0577 13.0786L14.8523 13.8732C15.815 12.7186 16.4418 11.2755 16.5844 9.69231H15.4615C15.0792 9.69231 14.7692 9.38235 14.7692 9C14.7692 8.61765 15.0792 8.30769 15.4615 8.30769H16.5844C16.4829 7.17984 16.1357 6.124 15.597 5.19279C15.4056 4.86182 15.5187 4.43832 15.8497 4.24688C16.1806 4.05543 16.6041 4.16855 16.7956 4.49952C17.5617 5.82399 18 7.36184 18 9C18 11.4851 16.9918 13.7361 15.364 15.364L15.364 15.364C13.7361 16.9918 11.4851 18 9 18C6.51477 18 4.26371 16.9917 2.63578 15.3637L2.63576 15.3637C1.00801 13.7358 0 11.4849 0 9C0 6.51491 1.00812 4.26396 2.63604 2.63604ZM8.99963 4.38461C9.38198 4.38461 9.69194 4.69457 9.69194 5.07692V7.04126C10.4986 7.32634 11.0769 8.09555 11.0769 9C11.0769 10.147 10.147 11.0769 9 11.0769C7.85285 11.0769 6.92308 10.1467 6.92308 8.99981C6.92308 8.0958 7.50081 7.32646 8.30732 7.0413V5.07692C8.30732 4.69457 8.61728 4.38461 8.99963 4.38461ZM8.99963 8.30769C8.61761 8.30769 8.30769 8.61755 8.30769 8.99981C8.30769 9.38226 8.61779 9.69231 9 9.69231C9.38233 9.69231 9.69231 9.38233 9.69231 9C9.69231 8.61791 9.3822 8.30769 8.99963 8.30769Z" fill="#D52300"/>
</svg>
