<svg width="17" height="18" viewBox="0 0 17 18" fill="none" xmlns="http://www.w3.org/2000/svg">
<path fill-rule="evenodd" clip-rule="evenodd" d="M2.34865 0.674331C2.78041 0.242564 3.36602 0 3.97663 0H11.5115C11.678 0 11.8377 0.0661539 11.9555 0.183909L16.1415 4.36993C16.2592 4.48768 16.3254 4.64739 16.3254 4.81392V15.6976C16.3254 16.3082 16.0828 16.8938 15.651 17.3256C15.2193 17.7573 14.6337 17.9999 14.0231 17.9999H8.99985C8.65307 17.9999 8.37195 17.7188 8.37195 17.372C8.37195 17.0252 8.65307 16.7441 8.99985 16.7441H14.0231C14.3006 16.7441 14.5668 16.6338 14.7631 16.4376C14.9593 16.2413 15.0696 15.9751 15.0696 15.6976V5.07401L11.2514 1.25581H3.97663C3.69908 1.25581 3.43289 1.36606 3.23664 1.56232C3.04038 1.75858 2.93012 2.02476 2.93012 2.30231V4.81392C2.93012 5.1607 2.649 5.44182 2.30222 5.44182C1.95544 5.44182 1.67432 5.1607 1.67432 4.81392V2.30231C1.67432 1.6917 1.91688 1.1061 2.34865 0.674331Z" fill="#D52300"/>
<path fill-rule="evenodd" clip-rule="evenodd" d="M10.6743 0C11.0211 0 11.3022 0.281122 11.3022 0.627903V3.97672C11.3022 4.25427 11.4124 4.52045 11.6087 4.71671C11.805 4.91297 12.0711 5.02322 12.3487 5.02322H15.6975C16.0443 5.02322 16.3254 5.30434 16.3254 5.65113C16.3254 5.99791 16.0443 6.27903 15.6975 6.27903H12.3487C11.7381 6.27903 11.1525 6.03646 10.7207 5.6047C10.289 5.17293 10.0464 4.58733 10.0464 3.97672V0.627903C10.0464 0.281122 10.3275 0 10.6743 0Z" fill="#D52300"/>
<path fill-rule="evenodd" clip-rule="evenodd" d="M0.919543 8.45436C1.50832 7.86559 2.30686 7.53482 3.13951 7.53482C3.5518 7.53482 3.96005 7.61603 4.34095 7.7738C4.72186 7.93158 5.06796 8.16283 5.35949 8.45436C5.65102 8.74589 5.88227 9.09199 6.04005 9.47289C6.19782 9.8538 6.27903 10.262 6.27903 10.6743C6.27903 11.0866 6.19782 11.4949 6.04005 11.8758C5.88227 12.2567 5.65102 12.6028 5.35949 12.8943C5.06796 13.1858 4.72186 13.4171 4.34095 13.5749C3.96005 13.7326 3.5518 13.8138 3.13951 13.8138C2.30686 13.8138 1.50832 13.4831 0.919543 12.8943C0.330769 12.3055 0 11.507 0 10.6743C0 9.84168 0.330769 9.04314 0.919543 8.45436ZM3.13951 8.79063C2.63992 8.79063 2.16079 8.98909 1.80753 9.34235C1.45427 9.69562 1.25581 10.1747 1.25581 10.6743C1.25581 11.1739 1.45427 11.6531 1.80753 12.0063C2.16079 12.3596 2.63992 12.558 3.13951 12.558C3.38689 12.558 3.63184 12.5093 3.86038 12.4147C4.08892 12.32 4.29658 12.1812 4.4715 12.0063C4.64642 11.8314 4.78517 11.6237 4.87983 11.3952C4.9745 11.1667 5.02322 10.9217 5.02322 10.6743C5.02322 10.427 4.9745 10.182 4.87983 9.95347C4.78517 9.72493 4.64642 9.51727 4.4715 9.34235C4.29658 9.16743 4.08892 9.02868 3.86038 8.93401C3.63184 8.83935 3.38689 8.79063 3.13951 8.79063Z" fill="#D52300"/>
<path fill-rule="evenodd" clip-rule="evenodd" d="M1.57744 12.1497C1.91863 12.2117 2.14493 12.5386 2.08289 12.8798L1.43539 16.4411L2.94097 15.9392C3.06985 15.8963 3.2092 15.8963 3.33809 15.9392L4.84366 16.4411L4.19616 12.8798C4.13413 12.5386 4.36042 12.2117 4.70161 12.1497C5.0428 12.0877 5.36968 12.314 5.43171 12.6552L6.26891 17.2598C6.3086 17.4781 6.23015 17.7011 6.06254 17.8464C5.89493 17.9918 5.66306 18.0379 5.45258 17.9678L3.13953 17.1968L0.826476 17.9678C0.615999 18.0379 0.38412 17.9918 0.216513 17.8464C0.0489059 17.7011 -0.0295467 17.4781 0.0101414 17.2598L0.847345 12.6552C0.909379 12.314 1.23625 12.0877 1.57744 12.1497Z" fill="#D52300"/>
</svg>
