<svg width="20" height="20" viewBox="0 0 20 20" fill="none" xmlns="http://www.w3.org/2000/svg">
<path d="M18.5862 12.6995H14.5002C14.0228 12.6995 13.565 12.8891 13.2274 13.2267C12.8898 13.5643 12.7002 14.0221 12.7002 14.4995V18.5855" stroke="#D52300" stroke-width="1.75" stroke-linecap="round" stroke-linejoin="round"/>
<path d="M5.50049 2.20535V3.69935C5.50049 4.41544 5.78495 5.10219 6.2913 5.60854C6.79765 6.11489 7.4844 6.39935 8.20049 6.39935C8.67788 6.39935 9.13571 6.589 9.47328 6.92656C9.81085 7.26413 10.0005 7.72196 10.0005 8.19935C10.0005 9.18935 10.8105 9.99935 11.8005 9.99935C12.2779 9.99935 12.7357 9.80971 13.0733 9.47214C13.4108 9.13458 13.6005 8.67674 13.6005 8.19935C13.6005 7.20935 14.4105 6.39935 15.4005 6.39935H18.2535" stroke="#D52300" stroke-width="1.75" stroke-linecap="round" stroke-linejoin="round"/>
<path d="M9.10017 18.955V15.4C9.10017 14.9226 8.91052 14.4648 8.57296 14.1272C8.23539 13.7896 7.77756 13.6 7.30017 13.6C6.82278 13.6 6.36494 13.4104 6.02737 13.0728C5.68981 12.7352 5.50017 12.2774 5.50017 11.8V10.9C5.50017 10.4226 5.31052 9.96478 4.97296 9.62721C4.63539 9.28965 4.17756 9.10001 3.70017 9.10001H1.04517" stroke="#D52300" stroke-width="1.75" stroke-linecap="round" stroke-linejoin="round"/>
<path d="M10 19C14.9706 19 19 14.9706 19 10C19 5.02944 14.9706 1 10 1C5.02944 1 1 5.02944 1 10C1 14.9706 5.02944 19 10 19Z" stroke="#D52300" stroke-width="1.75" stroke-linecap="round" stroke-linejoin="round"/>
</svg>
