<svg width="18" height="18" viewBox="0 0 18 18" fill="none" xmlns="http://www.w3.org/2000/svg">
<path fill-rule="evenodd" clip-rule="evenodd" d="M0 9C0 4.02944 4.02944 0 9 0C10.8491 0 12.57 0.558424 14.0005 1.51596C14.3182 1.72865 14.4034 2.15864 14.1907 2.47638C13.978 2.79412 13.548 2.87928 13.2303 2.66659C12.0206 1.85684 10.5664 1.38462 9 1.38462C4.79414 1.38462 1.38462 4.79414 1.38462 9C1.38462 13.2059 4.79414 16.6154 9 16.6154C13.2059 16.6154 16.6154 13.2059 16.6154 9C16.6154 7.61176 16.2445 6.31222 15.597 5.19279C15.4056 4.86182 15.5187 4.43832 15.8497 4.24688C16.1806 4.05543 16.6041 4.16855 16.7956 4.49952C17.5617 5.82399 18 7.36184 18 9C18 13.9706 13.9706 18 9 18C4.02944 18 0 13.9706 0 9ZM9 5.07692C6.83335 5.07692 5.07692 6.83335 5.07692 9C5.07692 11.1666 6.83335 12.9231 9 12.9231C11.1666 12.9231 12.9231 11.1666 12.9231 9C12.9231 6.83335 11.1666 5.07692 9 5.07692ZM3.69231 9C3.69231 6.06865 6.06865 3.69231 9 3.69231C11.9313 3.69231 14.3077 6.06864 14.3077 9C14.3077 11.9313 11.9313 14.3077 9 14.3077C6.06864 14.3077 3.69231 11.9313 3.69231 9Z" fill="#D52300"/>
<path d="M10.3847 9C10.3847 9.76468 9.76477 10.3846 9.00009 10.3846C8.23542 10.3846 7.61548 9.76468 7.61548 9C7.61548 8.23533 8.23542 7.61539 9.00009 7.61539C9.76477 7.61539 10.3847 8.23533 10.3847 9Z" fill="#D52300"/>
</svg>
