<svg width="20" height="18" viewBox="0 0 20 18" fill="none" xmlns="http://www.w3.org/2000/svg">
<path d="M9.99984 8.99987H3.99995M9.99984 8.99987V4.99994M9.99984 8.99987H15.9997M3.99995 8.99987V12.9998M3.99995 8.99987H1M15.9997 8.99987V12.9998M15.9997 8.99987H18.9997" stroke="#D52300" stroke-width="1.5" stroke-linecap="round" stroke-linejoin="round"/>
<path d="M5.64992 16.9997C6.21237 16.9997 6.49359 16.9997 6.69074 16.8565C6.75441 16.8102 6.8104 16.7543 6.85666 16.6906C6.99989 16.4935 6.99989 16.2123 6.99989 15.6498V14.3498C6.99989 13.7873 6.99989 13.5061 6.85666 13.309C6.8104 13.2453 6.75441 13.1893 6.69074 13.143C6.49359 12.9998 6.21237 12.9998 5.64992 12.9998H2.34998C1.78753 12.9998 1.5063 12.9998 1.30915 13.143C1.24549 13.1893 1.1895 13.2453 1.14324 13.309C1 13.5061 1 13.7873 1 14.3498V15.6498C1 16.2123 1 16.4935 1.14324 16.6906C1.1895 16.7543 1.24549 16.8102 1.30915 16.8565C1.5063 16.9997 1.78753 16.9997 2.34998 16.9997H5.64992Z" stroke="#D52300" stroke-width="1.5" stroke-linejoin="round"/>
<path d="M11.6499 4.99993C12.2124 4.99993 12.4936 4.99993 12.6907 4.85669C12.7544 4.81043 12.8104 4.75444 12.8567 4.69077C12.9999 4.49363 12.9999 4.2124 12.9999 3.64995V2.34998C12.9999 1.78753 12.9999 1.5063 12.8567 1.30915C12.8104 1.24549 12.7544 1.1895 12.6907 1.14324C12.4936 1 12.2124 1 11.6499 1H8.34998C7.78753 1 7.5063 1 7.30915 1.14324C7.24549 1.1895 7.1895 1.24549 7.14324 1.30915C7 1.5063 7 1.78753 7 2.34998V3.64995C7 4.2124 7 4.49363 7.14324 4.69077C7.1895 4.75444 7.24549 4.81043 7.30915 4.85669C7.5063 4.99993 7.78753 4.99993 8.34998 4.99993H11.6499Z" stroke="#D52300" stroke-width="1.5" stroke-linejoin="round"/>
<path d="M17.6497 16.9997C18.2122 16.9997 18.4934 16.9997 18.6905 16.8565C18.7542 16.8102 18.8102 16.7543 18.8565 16.6906C18.9997 16.4935 18.9997 16.2123 18.9997 15.6498V14.3498C18.9997 13.7873 18.9997 13.5061 18.8565 13.309C18.8102 13.2453 18.7542 13.1893 18.6905 13.143C18.4934 12.9998 18.2122 12.9998 17.6497 12.9998H14.3497C13.7872 12.9998 13.506 12.9998 13.309 13.143C13.2453 13.1893 13.1893 13.2453 13.143 13.309C12.9998 13.5061 12.9998 13.7873 12.9998 14.3498V15.6498C12.9998 16.2123 12.9998 16.4935 13.143 16.6906C13.1893 16.7543 13.2453 16.8102 13.309 16.8565C13.506 16.9997 13.7872 16.9997 14.3497 16.9997H17.6497Z" stroke="#D52300" stroke-width="1.5" stroke-linejoin="round"/>
</svg>
