<svg width="24" height="32" viewBox="0 0 24 32" fill="none" xmlns="http://www.w3.org/2000/svg">
<path d="M13.2159 31.281C16.359 27.258 23.5276 17.5078 23.5276 12.0311C23.5276 5.38895 18.2584 0 11.7638 0C5.26919 0 0 5.38895 0 12.0311C0 17.5078 7.16855 27.258 10.3117 31.281C11.0653 32.2397 12.4622 32.2397 13.2159 31.281ZM11.7638 8.02076C12.8038 8.02076 13.8011 8.44328 14.5365 9.19537C15.2719 9.94746 15.685 10.9675 15.685 12.0311C15.685 13.0948 15.2719 14.1148 14.5365 14.8669C13.8011 15.619 12.8038 16.0415 11.7638 16.0415C10.7238 16.0415 9.72641 15.619 8.99103 14.8669C8.25565 14.1148 7.84252 13.0948 7.84252 12.0311C7.84252 10.9675 8.25565 9.94746 8.99103 9.19537C9.72641 8.44328 10.7238 8.02076 11.7638 8.02076Z" fill="#263238"/>
</svg>
