<svg width="16" height="20" viewBox="0 0 16 20" fill="none" xmlns="http://www.w3.org/2000/svg">
<path d="M8.90762 19.5511C10.8721 17.0368 15.3524 10.9429 15.3524 7.51995C15.3524 3.36858 12.0592 0.000488281 8.00006 0.000488281C3.94095 0.000488281 0.647705 3.36858 0.647705 7.51995C0.647705 10.9429 5.12805 17.0368 7.09251 19.5511C7.56352 20.1503 8.43661 20.1503 8.90762 19.5511ZM8.00006 5.01346C8.65005 5.01346 9.27342 5.27754 9.73303 5.74759C10.1926 6.21765 10.4509 6.85519 10.4509 7.51995C10.4509 8.18471 10.1926 8.82224 9.73303 9.2923C9.27342 9.76236 8.65005 10.0264 8.00006 10.0264C7.35008 10.0264 6.72671 9.76236 6.2671 9.2923C5.80749 8.82224 5.54928 8.18471 5.54928 7.51995C5.54928 6.85519 5.80749 6.21765 6.2671 5.74759C6.72671 5.27754 7.35008 5.01346 8.00006 5.01346Z" fill="white"/>
</svg>
