<svg width="20" height="20" viewBox="0 0 20 20" fill="none" xmlns="http://www.w3.org/2000/svg">
<g clip-path="url(#clip0_193_45)">
<path d="M10 10H19M19 10L16.5 7.5M19 10L16.5 12.5M13 6.5V6.4C13 4.15016 13 3.02524 12.4271 2.23664C12.242 1.98196 12.018 1.75799 11.7634 1.57295C10.9748 1 9.84984 1 7.6 1H6.4C4.15016 1 3.02524 1 2.23664 1.57295C1.98196 1.75799 1.75799 1.98196 1.57295 2.23664C1 3.02524 1 4.15016 1 6.4V13.6C1 15.8498 1 16.9748 1.57295 17.7634C1.75799 18.018 1.98196 18.242 2.23664 18.4271C3.02524 19 4.15016 19 6.4 19H7.6C9.84984 19 10.9748 19 11.7634 18.4271C12.018 18.242 12.242 18.018 12.4271 17.7634C13 16.9748 13 15.8498 13 13.6V13.5" stroke="#D52300" stroke-width="1.5" stroke-linecap="round" stroke-linejoin="round"/>
</g>
<defs>
<clipPath id="clip0_193_45">
<rect width="20" height="20" fill="white"/>
</clipPath>
</defs>
</svg>
