<svg width="16" height="12" viewBox="0 0 16 12" fill="none" xmlns="http://www.w3.org/2000/svg">
<path d="M1.5 0.000488281C0.671875 0.000488281 0 0.672363 0 1.50049C0 1.97236 0.221875 2.41611 0.6 2.70049L7.4 7.80049C7.75625 8.06611 8.24375 8.06611 8.6 7.80049L15.4 2.70049C15.7781 2.41611 16 1.97236 16 1.50049C16 0.672363 15.3281 0.000488281 14.5 0.000488281H1.5ZM0 3.50049V10.0005C0 11.1036 0.896875 12.0005 2 12.0005H14C15.1031 12.0005 16 11.1036 16 10.0005V3.50049L9.2 8.60049C8.4875 9.13486 7.5125 9.13486 6.8 8.60049L0 3.50049Z" fill="white"/>
</svg>
