<svg width="20" height="20" viewBox="0 0 20 20" fill="none" xmlns="http://www.w3.org/2000/svg">
<path d="M17.3151 2.314L13.3731 1C13.3731 1.95478 12.9938 2.87045 12.3186 3.54558C11.6435 4.22072 10.7278 4.6 9.77306 4.6C8.81828 4.6 7.90261 4.22072 7.22747 3.54558C6.55234 2.87045 6.17306 1.95478 6.17306 1L2.23106 2.314C1.8237 2.44971 1.47828 2.72657 1.25713 3.09461C1.03598 3.46264 0.953669 3.89761 1.02506 4.321L1.54706 7.444C1.58133 7.65542 1.68987 7.84769 1.85319 7.98626C2.0165 8.12483 2.22388 8.20062 2.43806 8.2H4.37306V17.2C4.37306 18.19 5.18306 19 6.17306 19H13.3731C13.8504 19 14.3083 18.8104 14.6459 18.4728C14.9834 18.1352 15.1731 17.6774 15.1731 17.2V8.2H17.1081C17.3222 8.20062 17.5296 8.12483 17.6929 7.98626C17.8562 7.84769 17.9648 7.65542 17.9991 7.444L18.5211 4.321C18.5924 3.89761 18.5101 3.46264 18.289 3.09461C18.0678 2.72657 17.7224 2.44971 17.3151 2.314Z" stroke="#D52300" stroke-width="1.75" stroke-linecap="round" stroke-linejoin="round"/>
</svg>
