<svg width="18" height="18" viewBox="0 0 18 18" fill="none" xmlns="http://www.w3.org/2000/svg">
<path fill-rule="evenodd" clip-rule="evenodd" d="M4.8561 5.69728C5.14029 5.95307 5.16331 6.39081 4.90752 6.675L4.89829 6.68525C4.64249 6.96944 4.20475 6.99246 3.92057 6.73667C3.63638 6.48087 3.61336 6.04313 3.86915 5.75895L3.87838 5.74869C4.13418 5.4645 4.57192 5.44149 4.8561 5.69728Z" fill="#D52300"/>
<path fill-rule="evenodd" clip-rule="evenodd" d="M8.54751 5.69728C8.8317 5.95307 8.85472 6.39081 8.59892 6.675L8.58969 6.68525C8.3339 6.96944 7.89616 6.99246 7.61197 6.73667C7.32779 6.48087 7.30477 6.04313 7.56056 5.75895L7.56979 5.74869C7.82558 5.4645 8.26332 5.44149 8.54751 5.69728Z" fill="#D52300"/>
<path fill-rule="evenodd" clip-rule="evenodd" d="M4.85635 9.42406C5.14041 9.67998 5.16323 10.1177 4.9073 10.4018L4.89807 10.412C4.64214 10.6961 4.20439 10.7189 3.92032 10.463C3.63626 10.2071 3.61344 9.76932 3.86937 9.48526L3.8786 9.47501C4.13453 9.19094 4.57228 9.16813 4.85635 9.42406Z" fill="#D52300"/>
<path fill-rule="evenodd" clip-rule="evenodd" d="M8.54775 9.42406C8.83182 9.67998 8.85463 10.1177 8.59871 10.4018L8.58947 10.412C8.33355 10.6961 7.8958 10.7189 7.61173 10.463C7.32766 10.2071 7.30485 9.76932 7.56078 9.48526L7.57001 9.47501C7.82593 9.19094 8.26369 9.16813 8.54775 9.42406Z" fill="#D52300"/>
<path fill-rule="evenodd" clip-rule="evenodd" d="M4.85632 13.1154C5.1404 13.3714 5.16323 13.8091 4.90732 14.0932L4.89809 14.1034C4.64217 14.3875 4.20442 14.4103 3.92035 14.1544C3.63627 13.8985 3.61344 13.4608 3.86935 13.1767L3.87858 13.1664C4.1345 12.8824 4.57225 12.8595 4.85632 13.1154Z" fill="#D52300"/>
<path fill-rule="evenodd" clip-rule="evenodd" d="M8.54773 13.1154C8.83181 13.3714 8.85464 13.8091 8.59873 14.0932L8.58949 14.1034C8.33358 14.3875 7.89583 14.4103 7.61175 14.1544C7.32767 13.8985 7.30484 13.4608 7.56076 13.1767L7.56999 13.1664C7.8259 12.8824 8.26365 12.8595 8.54773 13.1154Z" fill="#D52300"/>
<path fill-rule="evenodd" clip-rule="evenodd" d="M6.92308 1.38462V2.53846C6.92308 2.92081 6.61312 3.23077 6.23077 3.23077H1.38462V16.6154H11.0769V1.38462H6.92308ZM12.4615 16.6154H16.6154V6.92308H12.4615V9.23077H13.6154C13.9977 9.23077 14.3077 9.54073 14.3077 9.92308C14.3077 10.3054 13.9977 10.6154 13.6154 10.6154H12.4615V12.9231H13.6154C13.9977 12.9231 14.3077 13.233 14.3077 13.6154C14.3077 13.9977 13.9977 14.3077 13.6154 14.3077H12.4615V16.6154ZM12.4615 5.53846V1.24615C12.4615 0.557945 11.9037 0 11.2154 0H6.78462C6.09639 0 5.53846 0.557922 5.53846 1.24615V1.84615H1.24615C0.557923 1.84615 0 2.40408 0 3.09231V16.7538C0 17.4421 0.557945 18 1.24615 18H16.7538C17.4421 18 18 17.4421 18 16.7538V6.78462C18 6.09641 17.4421 5.53846 16.7538 5.53846H12.4615Z" fill="#D52300"/>
</svg>
