<svg width="20" height="17" viewBox="0 0 20 17" fill="none" xmlns="http://www.w3.org/2000/svg">
<path fill-rule="evenodd" clip-rule="evenodd" d="M0 0.769231C0 0.344396 0.344396 0 0.769231 0H19.2308C19.6556 0 20 0.344396 20 0.769231C20 1.19407 19.6556 1.53846 19.2308 1.53846H0.769231C0.344396 1.53846 0 1.19407 0 0.769231Z" fill="white"/>
<path fill-rule="evenodd" clip-rule="evenodd" d="M0 6.92484C0 6.50001 0.344396 6.15561 0.769231 6.15561H16.1538C17.1739 6.15561 18.1522 6.56083 18.8735 7.28212C19.5948 8.00342 20 8.9817 20 10.0018C20 11.0218 19.5948 12.0001 18.8735 12.7214C18.1522 13.4427 17.1739 13.8479 16.1538 13.8479H12.0513C11.6264 13.8479 11.2821 13.5035 11.2821 13.0787C11.2821 12.6539 11.6264 12.3095 12.0513 12.3095H16.1538C16.7659 12.3095 17.3529 12.0663 17.7856 11.6335C18.2184 11.2008 18.4615 10.6138 18.4615 10.0018C18.4615 9.38972 18.2184 8.80275 17.7856 8.36998C17.3529 7.9372 16.7659 7.69407 16.1538 7.69407H0.769231C0.344396 7.69407 0 7.34967 0 6.92484Z" fill="white"/>
<path fill-rule="evenodd" clip-rule="evenodd" d="M15.0948 11.0157C15.481 11.3434 15.481 11.8747 15.0948 12.2024L13.1567 13.8468L15.0948 15.4912C15.481 15.8189 15.481 16.3502 15.0948 16.6779C14.7085 17.0056 14.0823 17.0056 13.6961 16.6779L11.0587 14.4402C10.6725 14.1125 10.6725 13.5811 11.0587 13.2534L13.6961 11.0157C14.0823 10.6879 14.7085 10.6879 15.0948 11.0157Z" fill="white"/>
<path fill-rule="evenodd" clip-rule="evenodd" d="M0 13.0772C0 12.6523 0.303879 12.308 0.678733 12.308H7.01357C7.38843 12.308 7.69231 12.6523 7.69231 13.0772C7.69231 13.502 7.38843 13.8464 7.01357 13.8464H0.678733C0.303879 13.8464 0 13.502 0 13.0772Z" fill="white"/>
</svg>
