<svg width="108" height="107" viewBox="0 0 108 107" fill="none" xmlns="http://www.w3.org/2000/svg">
<path d="M16.7837 46.8764C16.5446 47.6566 15.8274 49.2169 15.2127 50.3871C14.598 51.5573 13.3344 53.3776 12.4123 54.4503C11.5244 55.4905 9.85101 57.0833 8.72402 57.961C7.59703 58.8062 5.44552 60.0739 3.94287 60.7565C2.44022 61.4392 0.835119 62.1218 0.391155 62.2843C-0.326017 62.5444 -0.189413 62.6744 1.92795 63.4546C3.2257 63.9421 5.24061 64.9173 6.4359 65.665C7.59703 66.3801 9.20213 67.5178 9.95346 68.1679C10.7389 68.8506 12.0367 70.2158 12.8221 71.191C13.6076 72.1662 14.7346 73.8565 15.281 74.9292C15.8616 76.0019 16.5446 77.4972 16.7837 78.2773C17.0569 79.025 17.3642 79.5451 17.4667 79.4151C17.6033 79.2525 17.9448 78.4074 18.2522 77.5297C18.5595 76.6195 19.3792 74.9617 20.0622 73.7915C20.8135 72.5238 22.4528 70.5734 24.2286 68.8831C26.6875 66.5426 27.6779 65.86 30.41 64.6248C32.1858 63.8121 34.03 62.9995 34.5081 62.8369C35.3277 62.5119 35.3277 62.5119 33.9958 62.0893C33.2445 61.8617 31.4003 61.0816 29.8977 60.3665C27.8828 59.3588 26.4143 58.3186 24.2286 56.2382C22.4528 54.5479 20.8135 52.6625 20.0622 51.3623C19.3792 50.192 18.5595 48.5017 18.2522 47.6241C17.9448 46.7139 17.6033 45.9012 17.4667 45.7387C17.3642 45.6087 17.0569 46.1288 16.7837 46.8764ZM49.8419 91.8324C49.3979 92.7101 48.1685 94.2704 47.144 95.2781C46.1194 96.2533 44.5485 97.391 43.6606 97.781C42.7385 98.1711 42.0213 98.5287 42.0213 98.5612C41.9872 98.6262 43.0117 99.2438 44.2753 99.959C45.5389 100.674 47.0757 101.844 47.7246 102.559C48.3734 103.275 49.2955 104.542 49.7395 105.387C50.1834 106.265 50.6615 106.948 50.8323 106.948C50.9689 106.948 51.2763 106.428 51.5153 105.81C51.7202 105.192 52.8131 103.762 53.9059 102.689C54.9646 101.584 56.7063 100.219 57.7308 99.6989C59.4042 98.7887 59.5408 98.6587 58.9603 98.3661C58.5846 98.1711 57.3552 97.4235 56.2282 96.6758C54.828 95.7982 53.701 94.693 52.7789 93.3927C52.0276 92.32 51.2421 91.1823 51.0372 90.8247C50.7298 90.2721 50.5932 90.3696 49.8419 91.8324Z" fill="#D52300"/>
<path d="M72.3074 2.86054C71.8635 4.42084 70.8048 7.15135 69.9169 8.93919C68.9948 10.727 67.458 13.36 66.4335 14.7903C65.4089 16.2206 63.3599 18.626 61.8231 20.1213C60.3204 21.6166 57.9298 23.6645 56.5296 24.6722C55.1294 25.6799 52.4315 27.2727 50.5532 28.1828C48.6749 29.093 45.7037 30.2957 43.9962 30.8483C42.2545 31.4009 40.5128 31.856 40.1371 31.856C39.7615 31.856 39.4541 31.986 39.4541 32.1811C39.4541 32.3761 40.4445 32.7337 41.6739 32.9937C42.9034 33.2538 45.2256 34.0014 46.899 34.619C48.5383 35.2692 50.963 36.3744 52.2608 37.122C53.5926 37.8697 55.8808 39.3649 57.3834 40.4701C58.8861 41.5754 61.1059 43.4932 62.3012 44.7285C63.4965 45.9637 65.1357 47.849 65.9212 48.9217C66.7408 49.9944 68.1069 52.1073 68.9606 53.6351C69.8144 55.1629 71.0438 57.9259 71.6927 59.8113C72.3757 61.6967 72.9222 63.4845 72.9222 63.8096C72.9222 64.1021 73.0246 64.3622 73.1954 64.3622C73.332 64.3622 73.8784 62.9319 74.4248 61.2091C75.0054 59.4537 76.3373 56.3331 77.4301 54.2853C78.4888 52.2374 80.1963 49.5069 81.1867 48.2716C82.1771 47.0364 83.9871 45.0535 85.2165 43.8508C86.446 42.6806 88.7341 40.8277 90.3392 39.69C91.9443 38.5523 94.8472 36.8945 96.8279 35.9518C98.8087 35.0416 101.916 33.8389 103.761 33.3188C105.571 32.7662 107.073 32.2786 107.073 32.1811C107.073 32.0836 105.946 31.726 104.614 31.4009C103.248 31.0759 100.96 30.3282 99.56 29.7756C98.1598 29.1905 95.94 28.1828 94.6081 27.4677C93.2762 26.7526 91.0564 25.3548 89.6562 24.3471C88.256 23.3394 86.0362 21.4215 84.7043 20.1213C83.3724 18.7885 81.5965 16.7732 80.7428 15.6029C79.889 14.4327 78.6254 12.5474 77.9424 11.3772C77.2593 10.2069 76.2007 7.964 75.5518 6.3387C74.9029 4.71339 74.2199 2.633 74.0491 1.72283C73.8442 0.780148 73.571 0 73.4003 0C73.1954 0 72.7173 1.26774 72.3074 2.86054Z" fill="#D52300"/>
</svg>
