<svg width="20" height="18" viewBox="0 0 20 18" fill="none" xmlns="http://www.w3.org/2000/svg">
<g clip-path="url(#clip0_193_43)">
<path d="M8.00421 14.7195C7.63876 15.7034 8.3665 16.75 9.41606 16.75H16.0397C16.5872 16.75 16.8609 16.75 17.0645 16.7162C18.4518 16.4855 19.376 15.1564 19.1091 13.7756C19.07 13.573 18.9747 13.3164 18.784 12.8031C18.6253 12.3759 18.546 12.1623 18.4537 11.9759C17.8451 10.7459 16.6484 9.9139 15.2836 9.77157C15.0767 9.75 14.8488 9.75 14.3931 9.75H12.6075C12.3945 9.75 12.288 9.75 12.1821 9.75561C11.9157 9.76974 11.6513 9.81049 11.393 9.87725C11.2904 9.90377 11.1889 9.93585 10.9857 10M6.3301 5.25C5.22553 5.25 4.3301 4.35457 4.3301 3.25C4.3301 2.14543 5.22553 1.25 6.3301 1.25C7.43467 1.25 8.3301 2.14543 8.3301 3.25C8.3301 4.35457 7.43467 5.25 6.3301 5.25ZM13.8301 7.25C12.7255 7.25 11.8301 6.35457 11.8301 5.25C11.8301 4.14543 12.7255 3.25 13.8301 3.25C14.9346 3.25 15.8301 4.14543 15.8301 5.25C15.8301 6.35457 14.9346 7.25 13.8301 7.25ZM3.96034 14.75H8.5397C9.08719 14.75 9.36094 14.75 9.56452 14.7162C10.9518 14.4855 11.876 13.1564 11.6091 11.7756C11.57 11.573 11.4747 11.3164 11.284 10.8031C11.1253 10.3759 11.046 10.1623 10.9537 9.97585C10.3451 8.74595 9.14847 7.9139 7.7836 7.77157C7.57672 7.75 7.34885 7.75 6.89309 7.75H5.60695C5.15119 7.75 4.92332 7.75 4.71644 7.77157C3.35157 7.9139 2.15494 8.74595 1.54629 9.97585C1.45403 10.1623 1.37469 10.3759 1.216 10.8031C1.02537 11.3164 0.930055 11.573 0.890895 11.7756C0.624034 13.1564 1.54821 14.4855 2.93552 14.7162C3.1391 14.75 3.41285 14.75 3.96034 14.75Z" stroke="#D52300" stroke-width="1.5" stroke-linejoin="round"/>
</g>
<defs>
<clipPath id="clip0_193_43">
<rect width="20" height="18" fill="white"/>
</clipPath>
</defs>
</svg>
