<svg width="22" height="20" viewBox="0 0 22 20" fill="none" xmlns="http://www.w3.org/2000/svg">
<path d="M14.9996 18.9984V16.9985C14.9996 15.9376 14.5782 14.9202 13.8281 14.1701C13.0779 13.42 12.0606 12.9986 10.9997 12.9986H4.99989C3.93905 12.9986 2.92166 13.42 2.17154 14.1701C1.42142 14.9202 1 15.9376 1 16.9985V18.9984" stroke="white" stroke-width="1.75" stroke-linecap="round" stroke-linejoin="round"/>
<path d="M7.99989 8.99972C10.209 8.99972 11.9998 7.20892 11.9998 4.99986C11.9998 2.7908 10.209 1 7.99989 1C5.79081 1 4 2.7908 4 4.99986C4 7.20892 5.79081 8.99972 7.99989 8.99972Z" stroke="white" stroke-width="1.75" stroke-linecap="round" stroke-linejoin="round"/>
<path d="M20.9999 19.0008V17.0008C20.9993 16.1146 20.7043 15.2537 20.1613 14.5532C19.6183 13.8528 18.8581 13.3525 18 13.131" stroke="white" stroke-width="1.75" stroke-linecap="round" stroke-linejoin="round"/>
<path d="M15 1.13068C15.8604 1.35097 16.623 1.85135 17.1676 2.55294C17.7122 3.25452 18.0078 4.1174 18.0078 5.00554C18.0078 5.89368 17.7122 6.75656 17.1676 7.45814C16.623 8.15973 15.8604 8.66011 15 8.8804" stroke="white" stroke-width="1.75" stroke-linecap="round" stroke-linejoin="round"/>
</svg>
